<?xml version="1.0" encoding="UTF-8" standalone="no"?>
<svg
   xmlns:dc="http://purl.org/dc/elements/1.1/"
   xmlns:cc="http://creativecommons.org/ns#"
   xmlns:rdf="http://www.w3.org/1999/02/22-rdf-syntax-ns#"
   xmlns:svg="http://www.w3.org/2000/svg"
   xmlns="http://www.w3.org/2000/svg"
   xmlns:sodipodi="http://sodipodi.sourceforge.net/DTD/sodipodi-0.dtd"
   xmlns:inkscape="http://www.inkscape.org/namespaces/inkscape"
   viewBox="0 0 21 21.08"
   width="21"
   height="21.08"
   version="1.1"
   id="svg8"
   sodipodi:docname="main-block__down-arrow.svg"
   inkscape:version="1.0.2-2 (e86c870879, 2021-01-15)">
  <metadata
     id="metadata14">
    <rdf:RDF>
      <cc:Work
         rdf:about="">
        <dc:format>image/svg+xml</dc:format>
        <dc:type
           rdf:resource="http://purl.org/dc/dcmitype/StillImage" />
        <dc:title></dc:title>
      </cc:Work>
    </rdf:RDF>
  </metadata>
  <defs
     id="defs12" />
  <sodipodi:namedview
     pagecolor="#ffffff"
     bordercolor="#666666"
     borderopacity="1"
     objecttolerance="10"
     gridtolerance="10"
     guidetolerance="10"
     inkscape:pageopacity="0"
     inkscape:pageshadow="2"
     inkscape:window-width="1920"
     inkscape:window-height="1017"
     id="namedview10"
     showgrid="false"
     fit-margin-top="0"
     fit-margin-left="0"
     fit-margin-right="0"
     fit-margin-bottom="0"
     inkscape:zoom="27.320035"
     inkscape:cx="9.9498269"
     inkscape:cy="10.609096"
     inkscape:window-x="-8"
     inkscape:window-y="-8"
     inkscape:window-maximized="1"
     inkscape:current-layer="svg8" />
  <style
     id="style2">
		tspan { white-space:pre }
		.shp0 { fill: #28c8c6 } 
	</style>
  <g
     id="Home"
     transform="translate(0,-0.08)">
    <g
       id="Form">
      <g
         id="Dropdown">
        <path
           id="Shape 26"
           class="shp0"
           d="M 10.5,21.16 C 4.7,21.16 0,16.44 0,10.62 0,4.8 4.7,0.08 10.5,0.08 16.3,0.08 21,4.8 21,10.62 21,16.44 16.3,21.16 10.5,21.16 Z m 0,-19.1 c -4.71,0 -8.53,3.83 -8.53,8.56 0,4.73 3.82,8.56 8.53,8.56 4.71,0 8.53,-3.83 8.53,-8.56 0,-4.73 -3.82,-8.56 -8.53,-8.56 z m 3.68,10.21 -2.95,3.29 v 0 c -0.18,0.2 -0.44,0.33 -0.73,0.33 -0.29,0 -0.55,-0.13 -0.73,-0.33 v 0 L 6.82,12.27 v 0 C 6.66,12.09 6.56,11.86 6.56,11.61 c 0,-0.55 0.44,-0.99 0.99,-0.99 0.29,0 0.55,0.13 0.73,0.33 v 0 l 1.24,1.38 V 6.34 c 0,-0.55 0.44,-0.99 0.98,-0.99 0.54,0 0.98,0.44 0.98,0.99 v 5.99 l 1.24,-1.38 v 0 c 0.18,-0.2 0.44,-0.33 0.73,-0.33 0.55,0 0.99,0.44 0.99,0.99 0,0.25 -0.1,0.48 -0.26,0.66 z" />
      </g>
    </g>
  </g>
</svg>
