<svg version="1.2" baseProfile="tiny-ps" xmlns="http://www.w3.org/2000/svg" viewBox="0 0 33 33" width="33" height="33">
	<title>Home</title>
	<style>
		tspan { white-space:pre }
		.shp0 { fill: #d8e0e8 } 
	</style>
	<g id="Home">
		<g id="Scroll Down">
			<path id="Shape 38" class="shp0" d="M16.5 33C7.39 33 0 25.61 0 16.5C0 7.39 7.39 0 16.5 0C25.61 0 33 7.39 33 16.5C33 25.61 25.61 33 16.5 33ZM16.5 3.09C9.1 3.09 3.09 9.1 3.09 16.5C3.09 23.9 9.1 29.91 16.5 29.91C23.9 29.91 29.91 23.9 29.91 16.5C29.91 9.1 23.9 3.09 16.5 3.09ZM22.29 19.08L17.65 24.24L17.65 24.23C17.36 24.55 16.96 24.75 16.5 24.75C16.04 24.75 15.64 24.55 15.35 24.23L15.35 24.24L10.71 19.08L10.71 19.08C10.47 18.8 10.31 18.44 10.31 18.05C10.31 17.19 11.01 16.5 11.86 16.5C12.32 16.5 12.72 16.7 13.01 17.02L13.01 17.01L14.95 19.17L14.95 9.8C14.95 8.94 15.65 8.25 16.5 8.25C17.35 8.25 18.05 8.94 18.05 9.8L18.05 19.17L19.99 17.01L19.99 17.02C20.28 16.7 20.68 16.5 21.14 16.5C21.99 16.5 22.69 17.19 22.69 18.05C22.69 18.44 22.53 18.8 22.29 19.08L22.29 19.08Z" />
		</g>
	</g>
</svg>